<svg xmlns="http://www.w3.org/2000/svg" viewBox="0 0 500 600" width="500" height="600">
  <!-- Kiro — Amazon AI IDE logo. White body shapes visible on dark backgrounds. -->
  <g transform="matrix(1.45761,0,0,1.45761,265.367,317.039)">
    <g transform="matrix(-1,0,0,1,0,0)">
      <path fill="#fff" d="M124.872,-2.098C121.933,-31.071 121.463,-58.981 113.863,-83.37C81.313,-222.739 -107.797,-222.6 -145.633,-84.076C-201.448,150.349 133.689,84.831 124.872,-2.098z"/>
      <path fill="#fff" d="M-9.994,160.678C7.798,54.302 -74.528,-129.561 -145.633,-84.076C-151.149,-63.764 -172.644,34.713 -119.418,131.246C-95.27,175.043 -27.933,217.214 -9.994,160.678z"/>
      <path fill="#fff" d="M-9.994,160.677C51.057,211.092 133.831,189.493 94.958,103.345C94.958,103.345 29.176,-50.213 -20.944,-22.834C-74.722,6.544 -64.237,96.151 -9.994,160.677z"/>
      <path fill="#fff" d="M100.242,105.752C156.154,126.169 161.723,86.208 149.883,66.353C112.421,3.534 128.201,-32.828 113.863,-83.37C81.313,-222.739 -15.528,40.717 100.242,105.752z"/>
    </g>
  </g>
  <!-- Eyes -->
  <g transform="matrix(1.45761,0,0,1.45761,263.3,317.039)">
    <ellipse cx="17.992" cy="-53.739" rx="18.456" ry="29.608" fill="rgba(0,0,0,0.7)"/>
  </g>
  <g transform="matrix(1.45761,0,0,1.45761,265.367,317.039)">
    <ellipse cx="81.822" cy="-53.739" rx="18.456" ry="29.608" fill="rgba(0,0,0,0.7)"/>
  </g>
</svg>
